<?xml version="1.0" standalone="yes"?>
<svg xmlns="http://www.w3.org/2000/svg" width="175" height="71">
<path style="fill:#ffffff; stroke:none;" d="M0 0L0 71L8 71C8 63.5924 9.22125 55.2176 8 48L13 45L12 47C13.7833 46.0198 13.5943 46.0924 14 44L9 44C10.5339 42.9774 10.4023 43.1954 11 42C9.17449 40.6638 8.2472 40.3096 6 40C6 26.4127 8 13.4843 8 0L0 0z"/>
<path style="fill:#fffbf8; stroke:none;" d="M8 0C8 13.4546 6 26.4171 6 40C7.87023 40.3423 11.0517 41.1097 9 43C11.1527 44.2259 13.5485 44.4871 12 47L13 45C11.1387 45.8399 9.66603 46.7982 8 48L8 58C8.87425 55.9479 8.95279 54.2528 9 52C11.2789 52.745 13.0055 53.6657 15 55L16 52C13.7833 50.8369 12.6058 49.9136 11 48C13.2079 48.4535 13.5508 48.6463 15 47C19.9655 48.2158 25.0335 47.0592 30 47.9892C33.0766 48.5653 36.5796 51.1051 39.7716 50.1335C41.8329 49.506 42.3208 47.7739 43 46L37 46C36.8826 43.2699 36.5008 40.6858 36 38L31 38C30.6563 40.8734 30.3853 43.1755 31 46L16 46C16 36.2471 17.2673 25.5235 15 16L21 16C19.231 15.2211 17.9641 15.0876 16 15L16 0L8 0z"/>
<path style="fill:#fdfcfa; stroke:none;" d="M16 0C15.9577 5.10469 15.398 9.9024 16 15L21 15L21 45C24.1266 44.0658 25.0658 43.1266 26 40C26.5618 41.8006 26.8241 43.1218 27 45C32.5694 37.9308 30.4857 27.0103 34.5594 19.2068C37.603 13.3765 39.7484 24.0637 40 26C43.2368 23.671 45.3803 19.9297 46 16C47.6352 16.5451 47.4549 16.3648 48 18C57.0084 12.9979 70.4374 23.0228 60.8765 31.5656C59.3945 32.8898 57.8249 33.3774 56 34C57.3643 35.8191 57.4922 35.031 57 37C59.5824 37.7602 60.614 38.2808 61 41L66 40C66 34.3657 64.5009 26.1417 67.179 21.0193C70.651 14.3785 78.0696 16.2712 81.0617 22.2894C82.6456 25.4751 81.99 29.5831 83 33C85.0872 28.026 84 21.3619 84 16C87.7176 16.1703 91.8159 16.5695 94.5664 19.419C99.931 24.9768 94.7998 32.0061 89 34C89 38.386 87.9671 43.3854 92 46L92 43L95 44C100.369 36.1388 100.196 25.2235 98 16L95 17L95 14C87.7988 11.8752 79.4816 12.5285 72 12L74 15C69.9322 13.2764 66.3796 13.0034 62 13L62 8C66.9875 9.2783 72.8776 10.0774 78 9.69444C80.8294 9.4829 83.7645 8.38073 85 11C88.7429 9.41404 91.9577 9.01383 96 9L96 6L48 6L48 2L96 2L96 0L16 0z"/>
<path style="fill:#fefdfb; stroke:none;" d="M48 2L48 6L96 6L96 9C91.8888 9.00318 88.671 9.04089 85 11C84.7488 9.54842 84.6848 9.24836 84 8C76.915 10.842 69.3208 8.84279 62 8L62 13C66.325 13.0148 69.8838 13.7156 74 15C73.2321 13.6859 73.3141 13.7679 72 13C78.9847 11.7989 88.094 12.3741 95 14L94 16L95 17C98.7005 16.313 102.237 16.0104 106 16C102.663 22.4129 103.871 30.9261 104.005 37.9992C104.042 39.9976 104.121 45.4165 107.625 44.2485C110.289 43.3604 109.966 39.17 109.996 37C110.094 30.0029 110 22.9979 110 16C114.013 16.4283 117.972 16.0307 122 16C119.804 25.2248 121 35.5546 121 45C123.964 44.0317 124.503 43.0661 125 40L127 40L127 45C131.487 37.5578 133.313 24.6347 134 16L136 16C136.305 22.9899 138.226 30.239 140 37C140.963 40.6692 141.208 43.6677 145 45C145 35.5546 146.196 25.2248 144 16C149.457 16.0488 153.204 17.4903 158 20L159 19C157.777 17.8048 157.58 17.6836 156 17C160.258 14.0987 159.996 10.8444 160 6C156.387 5.05615 154.944 3.6131 154 0C118.407 0 83.5322 2 48 2z"/>
<path style="fill:#fffcf9; stroke:none;" d="M154 0C154.584 3.97057 156.029 5.41631 160 6C159.984 10.4205 160.151 13.7111 156 16C157.139 17.0154 157.612 17.3087 159 18C157.429 23.302 157.565 27.4197 154 32C155.994 33.76 157.735 35.6336 160 37C159.712 38.4246 159.546 39.6037 159.409 41.0401C159.112 44.1512 156.85 48.2448 154.175 43.8326C151.672 39.7034 154.499 34.9166 150 32L150 46L136 46C136.615 43.1755 136.344 40.8734 136 38C130.725 38.4207 130.119 41.1017 130 46L134 44L133 48L138 48C135.091 51.4924 132.435 51.9476 128 52C131.699 53.552 136.017 53 140 53L160 53L160 56C154.618 56.4248 149.421 57 144 57C151.454 60.1681 157.653 63.9991 166 64C166.05 59.4513 167.815 55.4584 167.981 50.9853C168.614 34.0413 168 16.957 168 0L154 0z"/>
<path style="fill:#fefdfb; stroke:none;" d="M168 0C168 16.629 168.594 33.3795 167.981 49.9961C167.804 54.8017 166.017 59.0981 166 64C163.147 63.9978 159.931 64.3523 157.289 63.0625C154.568 61.7337 152.845 59.1271 149.829 58.2886C142.885 56.3575 135.122 57 128 57C125.947 63.4985 119.419 61.671 113.91 62.179C109.365 62.5982 106.715 64.4231 103 61C101.076 62.0012 100.902 62.0775 100 64C98.085 62.7233 98.915 62.7233 97 64C96.6672 62.0031 94.8177 59.0906 93 58C91.2681 56.9609 87.8174 58.9087 86 58C83.9246 56.9623 85.2466 55.4589 82 56L81 58C77.4935 59.7532 72.7651 56.8826 71 56L71 58C70.7618 55.9053 70.8159 54.1107 71 52C69.2032 52 69.4785 52.0143 68 53L69 50C65.9106 52.0019 66.0411 54.4645 66 58L70 59C65.057 66.9309 52.3055 64 44 64L44 58L36 58L36 64L16 64L16 66L132 66C139.332 66 146.669 66.0834 154 65.9961C157.15 65.9587 160.864 64.8405 163.941 65.5231C166.957 66.1921 167.563 68.3257 168 71L175 71L175 0L168 0z"/>
<path style="fill:#f1d4d1; stroke:none;" d="M15 18L21 17C18.4708 15.9605 16.8244 15.9068 15 18z"/>
<path style="fill:#b6aca1; stroke:none;" d="M35 16L36 17L35 16z"/>
<path style="fill:#fffbfa; stroke:none;" d="M36 16C37.9639 23.9681 39.2183 32.0563 41.2647 40C41.9613 42.7043 43.2843 47.0932 40.527 49.1289C37.7545 51.1758 33.7911 48.4907 31 47.7793C25.863 46.47 20.2602 47.7013 15 47C13.2762 48.0555 13.0793 48.0358 11 48C13.8418 52.9901 18.7145 52.9912 24 53L53 53L50 56C50.1672 58.2128 49.8032 61.4262 51.7454 62.9761C56.6323 66.876 67.7474 64.3081 70 59C67.8941 58.3562 66.2049 58.0941 64 58C63.9019 54.6769 63.1089 52.1039 62 49L69 50C68.0143 51.4785 68 51.2032 68 53L71 52L70 47L67 48C66.0985 46.0775 65.9239 46.0012 64 45C65.3362 43.1745 65.6904 42.2472 66 40L61 41C62.4228 36.7317 60.1262 37.8757 57 36L58 35C55.1981 37.4484 55.1981 42.5516 58 45C55.271 45.8102 52.8495 45.9791 50 46C52.532 37.434 51 26.9088 51 18L46 16C44.951 19.7652 42.648 23.1388 40 26C39.6832 22.0244 39.5169 18.2541 36 16z"/>
<path style="fill:#eee5e7; stroke:none;" d="M49 16L49 18L51 18L51 16L49 16z"/>
<path style="fill:#e9bcbf; stroke:none;" d="M51 16L51 45C54.2096 37.3512 52 25.2878 52 17L57 18C55.2659 15.9966 53.6451 16.077 51 16z"/>
<path style="fill:#cfacb4; stroke:none;" d="M70 16C72.1863 17.1161 73.5494 17.2266 76 17C73.9479 16.1258 72.2528 16.0472 70 16z"/>
<path style="fill:#ffd0d1; stroke:none;" d="M84 16C86.0521 16.8742 87.7472 16.9528 90 17C87.9479 16.1258 86.2528 16.0472 84 16z"/>
<path style="fill:#e8beb7; stroke:none;" d="M98 16C99.5272 24.2263 99 32.6612 99 41C102.121 33.5625 99.1047 23.9608 101 16L98 16z"/>
<path style="fill:#f9d3cc; stroke:none;" d="M101 16C102.693 17.0623 104.04 17.5196 106 18C104.46 16.1969 103.403 16.168 101 16z"/>
<path style="fill:#e5d6d2; stroke:none;" d="M110 16C113.503 18.2909 117.915 17.3254 122 18C119.27 14.8766 113.92 16.2129 110 16z"/>
<path style="fill:#eededb; stroke:none;" d="M134.667 16.3333C134.222 16.7778 135.278 16.7222 135.333 16.6667C135.778 16.2222 134.722 16.2778 134.667 16.3333z"/>
<path style="fill:#e6dacf; stroke:none;" d="M144 18C146.709 17.3521 149.216 17.0583 152 17C149.08 15.7767 146.163 15.5242 144 18z"/>
<path style="fill:#f0ada3; stroke:none;" d="M16 17L16 46C18.2921 40.5378 17.0004 32.8868 17 27C16.9998 23.5814 17.3283 20.1656 16 17z"/>
<path style="fill:#953a37; stroke:none;" d="M17 17L17 38C17 41.3903 16.2799 44.2028 20 45C18.2826 35.7493 18.8278 26.2753 20 17L17 17z"/>
<path style="fill:#c28c8a; stroke:none;" d="M20 17L20 46L24 46C22.7516 45.3152 22.4516 45.2512 21 45C21 36.7122 23.2096 24.6488 20 17z"/>
<path style="fill:#c6aba6; stroke:none;" d="M34 17L34 20C34.6961 18.4463 34.6961 18.5537 34 17z"/>
<path style="fill:#53372e; stroke:none;" d="M35.3333 17.6667C35.2778 17.7222 35.2222 18.7778 35.6667 18.3333C35.7222 18.2778 35.7778 17.2222 35.3333 17.6667z"/>
<path style="fill:#e4cec2; stroke:none;" d="M36 17L36 20C36.6961 18.4463 36.6961 18.5537 36 17z"/>
<path style="fill:#8b3638; stroke:none;" d="M52 17L52 45L55 45C55 44.3074 55.4143 41.4972 55 41L53 40C52.2417 34.6922 51.4231 22.2949 54 18L55 19C54.0198 17.2167 54.0924 17.4057 52 17z"/>
<path style="fill:#b36b63; stroke:none;" d="M55 17L55 46C57.2921 40.5378 56.0004 32.8868 56 27C55.9998 23.5814 56.3283 20.1656 55 17z"/>
<path style="fill:#ab9995; stroke:none;" d="M57 17L58 18L57 17z"/>
<path style="fill:#8c6d6e; stroke:none;" d="M58.6667 17.3333C58.2222 17.7778 59.2778 17.7222 59.3333 17.6667C59.7778 17.2222 58.7222 17.2778 58.6667 17.3333z"/>
<path style="fill:#dfbab8; stroke:none;" d="M60 17L61 18L60 17z"/>
<path style="fill:#ca9795; stroke:none;" d="M69 17L70 18L69 17z"/>
<path style="fill:#93656c; stroke:none;" d="M70.6667 17.3333C70.2223 17.7777 71.2778 17.7222 71.3333 17.6667C71.7778 17.2222 70.7222 17.2778 70.6667 17.3333z"/>
<path style="fill:#fad2da; stroke:none;" d="M72.6667 17.3333C72.2222 17.7778 73.2778 17.7222 73.3333 17.6667C73.7778 17.2222 72.7222 17.2778 72.6667 17.3333z"/>
<path style="fill:#8d6c6a; stroke:none;" d="M75 17L75 19C76.6352 18.4549 76.4549 18.6351 77 17L75 17z"/>
<path style="fill:#e2bbb4; stroke:none;" d="M77 17L78 18L77 17z"/>
<path style="fill:#b47d73; stroke:none;" d="M84 17L84 30C85.5909 26.2087 85.5909 20.7913 84 17z"/>
<path style="fill:#893736; stroke:none;" d="M85 17L85 33C86.6611 29.0413 86 24.2634 86 20C88.237 27.5681 87.808 37.6717 85 45C88.7201 44.2028 88 41.3902 88 38L88 17L85 17z"/>
<path style="fill:#b79a9f; stroke:none;" d="M88 17C89.2484 17.6848 89.5484 17.7488 91 18C89.7516 17.3152 89.4516 17.2512 88 17z"/>
<path style="fill:#846162; stroke:none;" d="M91 17L92 18L91 17z"/>
<path style="fill:#b58b89; stroke:none;" d="M92 17L93 18L92 17z"/>
<path style="fill:#92373c; stroke:none;" d="M100 17L100 36C103.779 30.0114 102.424 23.6182 104 17L100 17z"/>
<path style="fill:#a58f8e; stroke:none;" d="M110 17L111 18L110 17z"/>
<path style="fill:#745e5c; stroke:none;" d="M111 17L112 18L111 17z"/>
<path style="fill:#d3b1af; stroke:none;" d="M115 17L116 18L115 17z"/>
<path style="fill:#944444; stroke:none;" d="M116 17L116 24C116.874 21.9479 116.953 20.2528 117 18L119 18C119 26.954 120.24 36.5433 117 45C120.72 44.2028 120 41.3903 120 38L120 17L116 17z"/>
<path style="fill:#71484c; stroke:none;" d="M134 17L134 20C134.696 18.4463 134.696 18.5537 134 17z"/>
<path style="fill:#9d797a; stroke:none;" d="M135 17L135 20C135.696 18.4463 135.696 18.5537 135 17z"/>
<path style="fill:#b39c91; stroke:none;" d="M145 17L146 18L145 17z"/>
<path style="fill:#8a3c2c; stroke:none;" d="M146 17C146 21.4612 143.86 32.1082 150 32C148.817 27.0303 149 22.0815 149 17L146 17z"/>
<path style="fill:#bd8677; stroke:none;" d="M149 17L149 31C150.667 27.0279 150.667 20.9721 149 17z"/>
<path style="fill:#c6b6ad; stroke:none;" d="M150.667 17.3333C150.222 17.7778 151.278 17.7222 151.333 17.6667C151.778 17.2223 150.722 17.2778 150.667 17.3333z"/>
<path style="fill:#916d6c; stroke:none;" d="M152.667 17.3333C152.222 17.7778 153.278 17.7222 153.333 17.6667C153.778 17.2223 152.722 17.2778 152.667 17.3333z"/>
<path style="fill:#993638; stroke:none;" d="M53 18L53 41L55 41C55 34.3527 57.1224 23.4414 53 18z"/>
<path style="fill:#fef7f4; stroke:none;" d="M56 18L56 33C61.48 29.4386 59.7138 23.6479 59 18L56 18z"/>
<path style="fill:#90352c; stroke:none;" d="M59 18C60.2161 22.645 60.3625 26.2332 60 31C64.7938 27.8922 63.7234 20.6046 59 18z"/>
<path style="fill:#a5706f; stroke:none;" d="M61 18L62 19L61 18z"/>
<path style="fill:#bd8985; stroke:none;" d="M68 18L69 19L68 18z"/>
<path style="fill:#86312e; stroke:none;" d="M69 18L69 36C71.2257 30.6959 69.9322 23.7514 71 18L69 18z"/>
<path style="fill:#d5a4aa; stroke:none;" d="M71 18L72 19L71 18z"/>
<path style="fill:#fff9f8; stroke:none;" d="M75 45L75 18C68.6916 20.0937 70.9887 30.5081 71 36C71.0043 38.1067 70.6864 40.7051 71.5787 42.6821C72.3322 44.3515 73.4277 44.4782 75 45z"/>
<path style="fill:#813937; stroke:none;" d="M76 18L76 22C77.6501 20.7624 77.3334 19.3335 78 22C78.8227 19.7369 78.0035 19.2475 76 18z"/>
<path style="fill:#a6706e; stroke:none;" d="M77 18L78 19L77 18z"/>
<path style="fill:#dcbbb4; stroke:none;" d="M78 18L79 19L78 18z"/>
<path style="fill:#e3bfba; stroke:none;" d="M88 18C88 22.4311 86.4658 29.9117 90 33C88.8348 28.1057 89.9178 22.5703 88 18z"/>
<path style="fill:#fffdf6; stroke:none;" d="M89 18L89 32C93.417 29.1365 92.3391 22.5303 91 18L89 18z"/>
<path style="fill:#b2908d; stroke:none;" d="M91 18L92 19L91 18z"/>
<path style="fill:#833c3a; stroke:none;" d="M92 18C92.9059 22.8797 93.1567 27.1417 92 32C94.8496 30.4436 95.5031 29.2071 96 26C95.3152 27.2484 95.2512 27.5484 95 29C93.8999 25.0006 95.7192 20.4824 92 18z"/>
<path style="fill:#cdaaa1; stroke:none;" d="M94 18L95 19L94 18z"/>
<path style="fill:#b37066; stroke:none;" d="M103 18L103 43C105.413 37.2497 105.413 23.7503 103 18z"/>
<path style="fill:#d3c4c3; stroke:none;" d="M110 18C110 27.2072 113.699 42.563 103 46C107.769 47.6933 110.624 44.5961 111.532 39.9954C112.916 32.9786 112 25.1302 112 18L110 18z"/>
<path style="fill:#fefdf9; stroke:none;" d="M112 18C112 25.2941 113.254 33.9455 111.057 40.9815C108.46 49.2994 102.149 45.3962 99 40C96.7511 41.1535 96.1535 41.7511 95 44C93.5215 43.0143 93.7968 43 92 43C89.8271 46.3516 86.7688 45.9867 83 46C85.4534 37.6998 82.0009 29.4469 82 21C79.3875 27.226 82.9421 34.8803 79.821 40.9954C76.3853 47.7268 70.327 46.9823 67 41L64 45L67 48C68.7968 48 68.5215 47.9857 70 47C71.9465 51.3485 72.8822 57.1113 78 58L78 49C81.5441 50.8556 81.0219 54.8746 85 56L85 50L89 50L89 58L92 58C92.0492 53.8395 92.17 51.1119 96 49L97 58C95.8048 56.7772 95.6836 56.58 95 55C93.0698 58.6579 94.872 60.8206 97 64L100 64L102 61C103.322 62.144 104.319 63.1874 106.115 63.5363C108.809 64.0594 111.365 62.6844 114 62.3897C119.367 61.7892 126.81 63.8506 128 57C138.714 57 149.367 57.3438 160 56C156.041 54.3389 151.26 55 147 55L122 55L122 53C127.487 52.8867 135.111 53.2397 138 48L133 48L134 44C127.739 46.399 121.63 46 115 46C115 40.285 117.46 26.8975 113 23C114.336 21.1745 114.69 20.2472 115 18L112 18z"/>
<path style="fill:#ffedeb; stroke:none;" d="M115 18C114.489 19.9522 114.267 20.457 113 22C116.627 28.5226 115 37.7265 115 45C117.541 38.945 117.541 24.055 115 18z"/>
<path style="fill:#9b3635; stroke:none;" d="M117 18L117 43L119 43L119 18L117 18z"/>
<path style="fill:#ffd9d7; stroke:none;" d="M120 18L120 45C122.541 38.945 122.541 24.055 120 18z"/>
<path style="fill:#e4b2b3; stroke:none;" d="M145 18C145 27.1377 146.125 37.0742 144 46C146.407 43.897 145.994 41.1055 146 38C146.012 31.8531 147.392 23.6998 145 18z"/>
<path style="fill:#fff5ed; stroke:none;" d="M150 18L150 31C154.224 28.2615 153 22.5696 153 18L150 18z"/>
<path style="fill:#983c40; stroke:none;" d="M153 18C154.083 22.549 153.848 26.4306 153 31C155.087 30.1497 155.655 24.8475 157 27C158.585 22.8876 156.705 19.9442 153 18z"/>
<path style="fill:#a97e80; stroke:none;" d="M155 18L156 19L155 18z"/>
<path style="fill:#884843; stroke:none;" d="M35 19C34.8609 21.4529 34.9293 21.6764 37 23C36.4892 21.0478 36.2667 20.543 35 19z"/>
<path style="fill:#bd8583; stroke:none;" d="M62 19L63 20L62 19z"/>
<path style="fill:#d0b6a7; stroke:none;" d="M67 19L68 20L67 19z"/>
<path style="fill:#993735; stroke:none;" d="M68 19C66.0267 25.8681 68 34.7575 68 42L70 42C69.8626 35.3413 70.5379 25.0482 68 19z"/>
<path style="fill:#d0b0a8; stroke:none;" d="M75 19L76 20L75 19z"/>
<path style="fill:#d7b5ae; stroke:none;" d="M95 19L96 20L95 19z"/>
<path style="fill:#9f7070; stroke:none;" d="M153 19L154 20L153 19z"/>
<path style="fill:#c79a96; stroke:none;" d="M156 19L157 20L156 19z"/>
<path style="fill:#863332; stroke:none;" d="M19 20L19 43C21.2838 37.5574 21.2838 25.4426 19 20z"/>
<path style="fill:#ffcbca; stroke:none;" d="M59.3333 20.6667C59.2778 20.7222 59.2222 21.7778 59.6667 21.3333C59.7222 21.2778 59.7778 20.2222 59.3333 20.6667z"/>
<path style="fill:#f1beb8; stroke:none;" d="M63 20L64 21L63 20z"/>
<path style="fill:#d6aca4; stroke:none;" d="M70 20L70 42C72.2187 36.7127 72.2187 25.2873 70 20z"/>
<path style="fill:#ffdfe0; stroke:none;" d="M75 20C74.198 27.5139 75 35.4218 75 43C77.2838 37.5574 77.2838 25.4426 75 20z"/>
<path style="fill:#943737; stroke:none;" d="M77 20C77 26.7714 77.1513 33.2844 78 40C80.1514 34.873 80.1672 24.636 77 20z"/>
<path style="fill:#cf9a96; stroke:none;" d="M79 20L80 21L79 20z"/>
<path style="fill:#9b2f34; stroke:none;" d="M86 20L85 43L87 43C87 36.0322 88.7044 26.4448 86 20z"/>
<path style="fill:#cf8581; stroke:none;" d="M92 20L92 29C93.2561 26.0059 93.2561 22.9941 92 20z"/>
<path style="fill:#a1716b; stroke:none;" d="M95 20L96 21L95 20z"/>
<path style="fill:#ce9b9a; stroke:none;" d="M133 20L133 23C133.696 21.4463 133.696 21.5537 133 20z"/>
<path style="fill:#943637; stroke:none;" d="M134 20C132.863 26.1411 133.913 42.9357 141 45C139.908 36.544 137.09 28.4389 136 20L134 20z"/>
<path style="fill:#ffdcdc; stroke:none;" d="M153 20L153 27C154.059 24.4657 154.059 22.5343 153 20z"/>
<path style="fill:#cd908d; stroke:none;" d="M157.333 20.6667C157.278 20.7222 157.222 21.7778 157.667 21.3333C157.722 21.2778 157.778 20.2222 157.333 20.6667z"/>
<path style="fill:#9f5a51; stroke:none;" d="M63 21L63 29C64.1614 26.2302 64.1614 23.7698 63 21z"/>
<path style="fill:#eda9a7; stroke:none;" d="M66 21L66 41C68.0866 36.0273 68.0866 25.9727 66 21z"/>
<path style="fill:#9f4b44; stroke:none;" d="M79 21L79 38C80.8826 33.5135 80.8826 25.4865 79 21z"/>
<path style="fill:#ffe9ea; stroke:none;" d="M80 21L80 41C82.0866 36.0273 82.0866 25.9727 80 21z"/>
<path style="fill:#9a3437; stroke:none;" d="M95 21C94.1898 23.729 94.0208 26.1505 94 29C95.62 26.295 96.1568 23.9665 95 21z"/>
<path style="fill:#bf858c; stroke:none;" d="M96 21L96 28C97.0595 25.4657 97.0595 23.5343 96 21z"/>
<path style="fill:#debdb8; stroke:none;" d="M136 21L137 22L136 21z"/>
<path style="fill:#953838; stroke:none;" d="M34 22L35 32L38 32C37.9603 27.613 37.8717 24.5162 34 22z"/>
<path style="fill:#a24c4f; stroke:none;" d="M60 22L60 27C60.8299 24.9695 60.8299 24.0305 60 22z"/>
<path style="fill:#914749; stroke:none;" d="M76 22L76 42L78 42C77.8779 36.0854 78.2598 27.3855 76 22z"/>
<path style="fill:#a56868; stroke:none;" d="M136.333 22.6667C136.278 22.7222 136.222 23.7778 136.667 23.3333C136.722 23.2777 136.778 22.2222 136.333 22.6667z"/>
<path style="fill:#af7c78; stroke:none;" d="M33 23L33 27C33.7102 25.2405 33.7102 24.7595 33 23z"/>
<path style="fill:#cb8d87; stroke:none;" d="M37.3333 23.6667C37.2778 23.7222 37.2222 24.7778 37.6667 24.3333C37.7222 24.2778 37.7778 23.2222 37.3333 23.6667z"/>
<path style="fill:#9f514c; stroke:none;" d="M116 24L116 46L120 46C118.752 45.3152 118.452 45.2512 117 45C117 38.5639 118.5 29.959 116 24z"/>
<path style="fill:#cb9793; stroke:none;" d="M132 25C132.406 27.0924 132.217 27.0198 134 28C133.309 26.6116 133.015 26.1393 132 25z"/>
<path style="fill:#e39fa0; stroke:none;" d="M137.333 25.6667C137.278 25.7222 137.222 26.7778 137.667 26.3333C137.722 26.2777 137.778 25.2222 137.333 25.6667z"/>
<path style="fill:#8e3030; stroke:none;" d="M156 25C155.438 26.8005 155.176 28.1219 155 30C156.475 28.0648 156.791 27.3073 156 25z"/>
<path style="fill:#f1c3be; stroke:none;" d="M38 26L38 29C38.6961 27.4463 38.6961 27.5537 38 26z"/>
<path style="fill:#81322d; stroke:none;" d="M67 26L67 42C68.8123 37.6811 68.8123 30.3189 67 26z"/>
<path style="fill:#b4a49c; stroke:none;" d="M32 27L32 32C32.9241 30.3518 33.4494 28.8251 34 27L32 27z"/>
<path style="fill:#c37774; stroke:none;" d="M34 27L34 30C34.6961 28.4463 34.6961 28.5537 34 27z"/>
<path style="fill:#ab5d5d; stroke:none;" d="M137.333 27.6667C137.278 27.7222 137.222 28.7778 137.667 28.3333C137.722 28.2777 137.778 27.2222 137.333 27.6667z"/>
<path style="fill:#d8959e; stroke:none;" d="M153.333 27.6667C153.278 27.7222 153.222 28.7778 153.667 28.3333C153.722 28.2778 153.778 27.2222 153.333 27.6667z"/>
<path style="fill:#d59c98; stroke:none;" d="M157 27L158 28L157 27z"/>
<path style="fill:#fffdff; stroke:none;" d="M33 28C32.6346 31.4783 30.7424 35.0876 35 36C34.3485 33.3018 34.092 30.5275 33 28z"/>
<path style="fill:#e1c0b4; stroke:none;" d="M131 28C131 29.7968 131.014 29.5215 132 31C133.015 29.8606 133.309 29.3885 134 28L131 28z"/>
<path style="fill:#945858; stroke:none;" d="M38 29L38 32C38.6961 30.4463 38.6961 30.5537 38 29z"/>
<path style="fill:#d69d95; stroke:none;" d="M63 29L64 30L63 29z"/>
<path style="fill:#9b5d5f; stroke:none;" d="M92.3333 29.6667C92.2778 29.7222 92.2222 30.7778 92.6667 30.3333C92.7222 30.2778 92.7778 29.2222 92.3333 29.6667z"/>
<path style="fill:#fffff3; stroke:none;" d="M133 29C132.352 31.7092 132.058 34.2155 132 37L135 36C134.405 33.6044 134.009 31.233 133 29z"/>
<path style="fill:#e5beaf; stroke:none;" d="M156 29L157 30L156 29z"/>
<path style="fill:#dbd3d0; stroke:none;" d="M31.3333 30.6667C31.2778 30.7222 31.2222 31.7778 31.6667 31.3333C31.7222 31.2778 31.7778 30.2222 31.3333 30.6667z"/>
<path style="fill:#ffeede; stroke:none;" d="M34 30L34 35C34.8299 32.9695 34.8299 32.0305 34 30z"/>
<path style="fill:#80595a; stroke:none;" d="M58 33L62 32C61.4023 30.8046 61.5339 31.0226 60 30C58.9846 31.1394 58.6913 31.6116 58 33z"/>
<path style="fill:#b07368; stroke:none;" d="M62 30L63 31L62 30z"/>
<path style="fill:#c57074; stroke:none;" d="M84 30L84 45C85.7404 40.8523 85.7404 34.1477 84 30z"/>
<path style="fill:#e0a09f; stroke:none;" d="M95 30L96 31L95 30z"/>
<path style="fill:#a2948a; stroke:none;" d="M131 30L131 33C131.696 31.4463 131.696 31.5537 131 30z"/>
<path style="fill:#ba8c86; stroke:none;" d="M138.333 30.6667C138.278 30.7222 138.222 31.7778 138.667 31.3333C138.722 31.2777 138.778 30.2222 138.333 30.6667z"/>
<path style="fill:#cf9b9f; stroke:none;" d="M152 30L153 31L152 30z"/>
<path style="fill:#eabbab; stroke:none;" d="M155 30L156 31L155 30z"/>
<path style="fill:#943228; stroke:none;" d="M36 31C36.1174 33.7301 36.4992 36.3142 37 39C38.9317 35.7614 39.1543 33.3012 36 31z"/>
<path style="fill:#d0b0b1; stroke:none;" d="M91 31L92 32L91 31z"/>
<path style="fill:#c98b87; stroke:none;" d="M94 31L95 32L94 31z"/>
<path style="fill:#c88d82; stroke:none;" d="M134 31L135 32L134 31z"/>
<path style="fill:#93736e; stroke:none;" d="M150.667 31.3333C150.222 31.7778 151.278 31.7222 151.333 31.6667C151.778 31.2222 150.722 31.2778 150.667 31.3333z"/>
<path style="fill:#693537; stroke:none;" d="M152 31L153 32L152 31z"/>
<path style="fill:#b2797b; stroke:none;" d="M153 31L154 32L153 31z"/>
<path style="fill:#bfacb3; stroke:none;" d="M31 32C30.5618 35.3923 29.857 38.6882 29 42C30.6179 40.686 30.6933 40.1228 31 38L36 38C34.494 37.317 33.6852 37.1741 32 37C31.9124 35.0359 31.7789 33.769 31 32z"/>
<path style="fill:#b6856e; stroke:none;" d="M35.3333 32.6667C35.2778 32.7222 35.2222 33.7778 35.6667 33.3333C35.7222 33.2778 35.7778 32.2222 35.3333 32.6667z"/>
<path style="fill:#cab9b5; stroke:none;" d="M56 34L59 34L58 32C56.3648 32.5451 56.5451 32.3648 56 34z"/>
<path style="fill:#cab2ab; stroke:none;" d="M88 33C89.5061 33.683 90.3148 33.8259 92 34C90.2762 32.9445 90.0793 32.9642 88 33z"/>
<path style="fill:#81615c; stroke:none;" d="M91.6667 32.3333C91.2222 32.7778 92.2778 32.7222 92.3333 32.6667C92.7778 32.2222 91.7222 32.2778 91.6667 32.3333z"/>
<path style="fill:#cfaea6; stroke:none;" d="M93 32L94 33L93 32z"/>
<path style="fill:#89392d; stroke:none;" d="M101 32C100.357 37.0955 98.9042 42.023 104 45C103.189 40.6307 103 36.4363 103 32L101 32z"/>
<path style="fill:#fbcbc3; stroke:none;" d="M134 32L134 35C134.696 33.4463 134.696 33.5537 134 32z"/>
<path style="fill:#863438; stroke:none;" d="M146 32L146 45L149 45C149 40.3189 150.141 34.9866 146 32z"/>
<path style="fill:#c27f7a; stroke:none;" d="M149 32L149 45C150.591 41.2087 150.591 35.7913 149 32z"/>
<path style="fill:#c2918f; stroke:none;" d="M152 32L153 33L152 32z"/>
<path style="fill:#8f3838; stroke:none;" d="M153 32C153.865 36.659 153.664 41.4811 155 46C158.681 41.9508 157.871 34.6857 153 32z"/>
<path style="fill:#b8737b; stroke:none;" d="M39.3333 33.6667C39.2778 33.7222 39.2222 34.7778 39.6667 34.3333C39.7222 34.2778 39.7778 33.2222 39.3333 33.6667z"/>
<path style="fill:#eccbd5; stroke:none;" d="M131 33C130.776 34.6839 130.782 35.3135 131 37C131.71 35.2405 131.71 34.7595 131 33z"/>
<path style="fill:#d6afa7; stroke:none;" d="M156 33L157 34L156 33z"/>
<path style="fill:#e1cccf; stroke:none;" d="M35 34C33.7772 35.1952 33.58 35.3164 32 36C34.139 36.9524 35.9756 36.5767 35 34z"/>
<path style="fill:#e8c0be; stroke:none;" d="M88 34L88 45C89.4309 41.59 89.4309 37.41 88 34z"/>
<path style="fill:#ffe0d4; stroke:none;" d="M153 34L153 44C154.346 40.793 154.346 37.207 153 34z"/>
<path style="fill:#9b3e35; stroke:none;" d="M39 35C37.2995 38.8562 36.054 43.5532 41 45C40.8497 41.5093 40.5187 38.1601 39 35z"/>
<path style="fill:#ad9096; stroke:none;" d="M130 35L130 38C130.696 36.4463 130.696 36.5537 130 35z"/>
<path style="fill:#bc7b7c; stroke:none;" d="M135.333 35.6667C135.278 35.7222 135.222 36.7778 135.667 36.3333C135.722 36.2777 135.778 35.2222 135.333 35.6667z"/>
<path style="fill:#b77873; stroke:none;" d="M139.333 35.6667C139.278 35.7222 139.222 36.7778 139.667 36.3333C139.722 36.2778 139.778 35.2222 139.333 35.6667z"/>
<path style="fill:#d19f9d; stroke:none;" d="M157 35L158 36L157 35z"/>
<path style="fill:#aa655d; stroke:none;" d="M36.3333 36.6667C36.2778 36.7222 36.2222 37.7778 36.6667 37.3333C36.7222 37.2778 36.7778 36.2222 36.3333 36.6667z"/>
<path style="fill:#fecfd2; stroke:none;" d="M133.667 36.3333C133.222 36.7778 134.278 36.7222 134.333 36.6667C134.778 36.2222 133.722 36.2778 133.667 36.3333z"/>
<path style="fill:#9f514f; stroke:none;" d="M157 36L157 43C158.059 40.4657 158.059 38.5343 157 36z"/>
<path style="fill:#dbb1a9; stroke:none;" d="M40 37L41 38L40 37z"/>
<path style="fill:#e3d4cc; stroke:none;" d="M129 37C129.684 38.58 129.805 38.7772 131 40C130.316 38.42 130.195 38.2228 129 37z"/>
<path style="fill:#bfadb3; stroke:none;" d="M131 37C132.769 37.7789 134.036 37.9124 136 38C134.231 37.2211 132.964 37.0876 131 37z"/>
<path style="fill:#ffebe4; stroke:none;" d="M158 37C158.032 39.875 157.792 42.0745 160 44C159.803 41.6244 159.753 39.3715 160 37L158 37z"/>
<path style="fill:#ffcfcb; stroke:none;" d="M36 38L36 41C36.6961 39.4463 36.6961 39.5537 36 38z"/>
<path style="fill:#a05f56; stroke:none;" d="M40.3333 38.6667C40.2778 38.7222 40.2222 39.7778 40.6667 39.3333C40.7222 39.2778 40.7778 38.2222 40.3333 38.6667z"/>
<path style="fill:#782b2b; stroke:none;" d="M79 38C77.8596 40.3576 76.6587 42.4683 76 45C78.4008 42.8849 79.8502 41.22 79 38z"/>
<path style="fill:#eab5ac; stroke:none;" d="M140.333 38.6667C140.278 38.7223 140.222 39.7778 140.667 39.3333C140.722 39.2778 140.778 38.2222 140.333 38.6667z"/>
<path style="fill:#e5d4d4; stroke:none;" d="M29.3333 39.6667C29.2778 39.7222 29.2222 40.7778 29.6667 40.3333C29.7222 40.2778 29.7778 39.2222 29.3333 39.6667z"/>
<path style="fill:#af9c91; stroke:none;" d="M129 39L129 42C129.696 40.4463 129.696 40.5537 129 39z"/>
<path style="fill:#958485; stroke:none;" d="M26.3333 40.6667C26.2778 40.7222 26.2222 41.7778 26.6667 41.3333C26.7222 41.2778 26.7778 40.2222 26.3333 40.6667z"/>
<path style="fill:#ffc4c2; stroke:none;" d="M41 40L41 43C41.6961 41.4463 41.6961 41.5537 41 40z"/>
<path style="fill:#bfaeaf; stroke:none;" d="M125 40L125 42C126.635 41.4549 126.455 41.6352 127 40L125 40z"/>
<path style="fill:#e4ada5; stroke:none;" d="M136.333 40.6667C136.278 40.7222 136.222 41.7778 136.667 41.3333C136.722 41.2778 136.778 40.2222 136.333 40.6667z"/>
<path style="fill:#ad6762; stroke:none;" d="M140.333 40.6667C140.278 40.7222 140.222 41.7778 140.667 41.3333C140.722 41.2778 140.778 40.2222 140.333 40.6667z"/>
<path style="fill:#a87c72; stroke:none;" d="M79 41L80 42L79 41z"/>
<path style="fill:#b0898e; stroke:none;" d="M126 41L125 43L127 43C127 41.1468 127.3 41.6498 126 41z"/>
<path style="fill:#6a4c4e; stroke:none;" d="M26.3333 42.6667C26.2778 42.7222 26.2222 43.7778 26.6667 43.3333C26.7222 43.2778 26.7778 42.2222 26.3333 42.6667z"/>
<path style="fill:#b79a99; stroke:none;" d="M29 42L28 45C29.7662 44.0214 29.9555 43.7782 29 42z"/>
<path style="fill:#c18b87; stroke:none;" d="M37 42L38 43L37 42z"/>
<path style="fill:#a27368; stroke:none;" d="M67 42L68 43L67 42z"/>
<path style="fill:#792f29; stroke:none;" d="M68 42L68 44L70 44L70 42L68 42z"/>
<path style="fill:#64473f; stroke:none;" d="M70 42C70.0273 44.3786 70.0599 44.6832 72 46C71.4038 44.4399 70.9114 43.3766 70 42z"/>
<path style="fill:#daafa9; stroke:none;" d="M79 42L80 43L79 42z"/>
<path style="fill:#b87073; stroke:none;" d="M100 42L101 43L100 42z"/>
<path style="fill:#e4c8c8; stroke:none;" d="M128 42C128.684 43.58 128.805 43.7772 130 45L130 42L128 42z"/>
<path style="fill:#9f5757; stroke:none;" d="M137.333 42.6667C137.278 42.7222 137.222 43.7778 137.667 43.3333C137.722 43.2778 137.778 42.2222 137.333 42.6667z"/>
<path style="fill:#b59395; stroke:none;" d="M25 43L26 44L25 43z"/>
<path style="fill:#eccdc8; stroke:none;" d="M37 43L37 46C37.6961 44.4463 37.6961 44.5537 37 43z"/>
<path style="fill:#8e6567; stroke:none;" d="M41 43C39.7772 44.1952 39.58 44.3164 38 45C40.1389 45.9524 41.9756 45.5767 41 43z"/>
<path style="fill:#d2a5a2; stroke:none;" d="M75 43L76 44L75 43z"/>
<path style="fill:#be8e88; stroke:none;" d="M78 43L79 44L78 43z"/>
<path style="fill:#efb0b2; stroke:none;" d="M100 43L101 44L100 43z"/>
<path style="fill:#4d312c; stroke:none;" d="M125.333 43.6667C125.278 43.7222 125.222 44.7778 125.667 44.3333C125.722 44.2778 125.778 43.2222 125.333 43.6667z"/>
<path style="fill:#ceaaab; stroke:none;" d="M126.333 43.6667C126.278 43.7222 126.222 44.7778 126.667 44.3333C126.722 44.2778 126.778 43.2222 126.333 43.6667z"/>
<path style="fill:#dbb0b1; stroke:none;" d="M141.333 43.6667C141.278 43.7222 141.222 44.7778 141.667 44.3333C141.722 44.2778 141.778 43.2222 141.333 43.6667z"/>
<path style="fill:#caa9a7; stroke:none;" d="M24 44L25 45L24 44z"/>
<path style="fill:#856563; stroke:none;" d="M24 46C25.58 45.3164 25.7772 45.1952 27 44C25.42 44.6836 25.2228 44.8048 24 46z"/>
<path style="fill:#c89a91; stroke:none;" d="M68 44L69 45L68 44z"/>
<path style="fill:#cbb2ad; stroke:none;" d="M71 44L72 45L71 44z"/>
<path style="fill:#6d5550; stroke:none;" d="M75.3333 44.6667C75.2778 44.7222 75.2222 45.7778 75.6667 45.3333C75.7222 45.2778 75.7778 44.2222 75.3333 44.6667z"/>
<path style="fill:#a67876; stroke:none;" d="M77 44L78 45L77 44z"/>
<path style="fill:#cd9591; stroke:none;" d="M101 44L102 45L101 44z"/>
<path style="fill:#bca5a3; stroke:none;" d="M104 44L105 45L104 44z"/>
<path style="fill:#755e57; stroke:none;" d="M123 46L126 46L125 44C123.365 44.5451 123.545 44.3648 123 46z"/>
<path style="fill:#836b6b; stroke:none;" d="M128.333 44.6667C128.278 44.7222 128.222 45.7778 128.667 45.3333C128.722 45.2778 128.778 44.2222 128.333 44.6667z"/>
<path style="fill:#a47f7f; stroke:none;" d="M137 44L136 46L138 46C138 44.1468 138.3 44.6499 137 44z"/>
<path style="fill:#633531; stroke:none;" d="M157 44L156 46L158 46C158 44.1468 158.3 44.6499 157 44z"/>
<path style="fill:#a18c87; stroke:none;" d="M158 44L158 46C159.635 45.4549 159.455 45.6352 160 44L158 44z"/>
<path style="fill:#92585b; stroke:none;" d="M17 45C18.2484 45.6848 18.5484 45.7488 20 46C18.7516 45.3152 18.4516 45.2512 17 45z"/>
<path style="fill:#a8898a; stroke:none;" d="M26.6667 45.3333C26.2222 45.7778 27.2778 45.7222 27.3333 45.6667C27.7778 45.2222 26.7222 45.2778 26.6667 45.3333z"/>
<path style="fill:#8e7272; stroke:none;" d="M28.6667 45.3333C28.2222 45.7778 29.2778 45.7222 29.3333 45.6667C29.7778 45.2222 28.7222 45.2778 28.6667 45.3333z"/>
<path style="fill:#c9b6b3; stroke:none;" d="M30 45L31 46L30 45z"/>
<path style="fill:#a89797; stroke:none;" d="M42 45L43 46L42 45z"/>
<path style="fill:#c6b5b6; stroke:none;" d="M50 45L51 46L50 45z"/>
<path style="fill:#936760; stroke:none;" d="M51 45C52.5061 45.683 53.3148 45.8259 55 46C53.494 45.317 52.6852 45.1741 51 45z"/>
<path style="fill:#d8d4d4; stroke:none;" d="M56.6667 45.3333C56.2222 45.7778 57.2778 45.7222 57.3333 45.6667C57.7778 45.2222 56.7222 45.2778 56.6667 45.3333z"/>
<path style="fill:#e1c0b6; stroke:none;" d="M69 45L70 46L69 45z"/>
<path style="fill:#ccadb2; stroke:none;" d="M72 45L72 47C73.6352 46.4549 73.4549 46.6352 74 45L72 45z"/>
<path style="fill:#99817f; stroke:none;" d="M74 45L75 46L74 45z"/>
<path style="fill:#be9e99; stroke:none;" d="M76 45L77 46L76 45z"/>
<path style="fill:#cab2b2; stroke:none;" d="M83 45L84 46L83 45z"/>
<path style="fill:#846658; stroke:none;" d="M84 45C85.769 45.7789 87.0359 45.9124 89 46C87.231 45.2211 85.9641 45.0876 84 45z"/>
<path style="fill:#c9bdbd; stroke:none;" d="M89 45L90 46L89 45z"/>
<path style="fill:#eec7be; stroke:none;" d="M102 45L103 46L102 45z"/>
<path style="fill:#977870; stroke:none;" d="M103 45L104 46L103 45z"/>
<path style="fill:#5e4a4a; stroke:none;" d="M104 45L105 46L104 45z"/>
<path style="fill:#c2a9ac; stroke:none;" d="M115 45L116 46L115 45z"/>
<path style="fill:#c9a8ae; stroke:none;" d="M120 45C121.248 45.6848 121.548 45.7488 123 46C121.752 45.3152 121.452 45.2512 120 45z"/>
<path style="fill:#9d8384; stroke:none;" d="M126.667 45.3333C126.222 45.7778 127.278 45.7222 127.333 45.6667C127.778 45.2222 126.722 45.2778 126.667 45.3333z"/>
<path style="fill:#b49f9e; stroke:none;" d="M129 45L130 46L129 45z"/>
<path style="fill:#915d61; stroke:none;" d="M138 45C139.506 45.683 140.315 45.8259 142 46C140.494 45.317 139.685 45.1741 138 45z"/>
<path style="fill:#bca3a3; stroke:none;" d="M142 45L143 46L142 45z"/>
<path style="fill:#8a5b58; stroke:none;" d="M146 45C147.506 45.683 148.315 45.8259 150 46C148.494 45.317 147.685 45.1741 146 45z"/>
<path style="fill:#dcb5ae; stroke:none;" d="M154 45L155 46L154 45z"/>
<path style="fill:#e3cdcc; stroke:none;" d="M73 46C74.2484 46.6848 74.5484 46.7488 76 47C74.7517 46.3152 74.4516 46.2512 73 46z"/>
<path style="fill:#e8d2d1; stroke:none;" d="M155 46C156.506 46.683 157.315 46.8259 159 47C157.494 46.317 156.685 46.1741 155 46z"/>
<path style="fill:#dcd3ce; stroke:none;" d="M62 52L67 50C64.3872 48.502 62.6455 48.9876 62 52z"/>
<path style="fill:#e7c2c2; stroke:none;" d="M78 49L79 53C79.9114 51.6234 80.4038 50.5601 81 49L78 49z"/>
<path style="fill:#f4dfd7; stroke:none;" d="M93 49L94 53C94.9114 51.6234 95.4038 50.5601 96 49L93 49z"/>
<path style="fill:#d3b7b8; stroke:none;" d="M100 49L100 52C101.015 50.8606 101.309 50.3884 102 49L100 49z"/>
<path style="fill:#876362; stroke:none;" d="M64 50L64 58C65.1614 55.2301 65.1614 52.7699 64 50z"/>
<path style="fill:#ddbbb9; stroke:none;" d="M65 50L65 58C66.092 55.4725 66.3485 52.6982 67 50L65 50z"/>
<path style="fill:#e5d1d7; stroke:none;" d="M71.6667 50.3333C71.2222 50.7778 72.2778 50.7222 72.3333 50.6667C72.7778 50.2222 71.7222 50.2778 71.6667 50.3333z"/>
<path style="fill:#866766; stroke:none;" d="M78.3333 50.6667C78.2778 50.7222 78.2222 51.7778 78.6667 51.3333C78.7222 51.2778 78.7778 50.2222 78.3333 50.6667z"/>
<path style="fill:#af9093; stroke:none;" d="M80 50L81 51L80 50z"/>
<path style="fill:#f2d7d6; stroke:none;" d="M85 50L85 58C86.1614 55.2301 86.1614 52.7698 85 50z"/>
<path style="fill:#79595c; stroke:none;" d="M86 50L86 58C87.1614 55.2301 87.1614 52.7698 86 50z"/>
<path style="fill:#b0a6a0; stroke:none;" d="M87.6667 50.3333C87.2222 50.7778 88.2778 50.7222 88.3333 50.6667C88.7778 50.2222 87.7222 50.2778 87.6667 50.3333z"/>
<path style="fill:#ffd9d1; stroke:none;" d="M92 50L92 58C93.1614 55.2301 93.1614 52.7698 92 50z"/>
<path style="fill:#7e524b; stroke:none;" d="M93 50L93 55C93.8299 52.9695 93.8299 52.0305 93 50z"/>
<path style="fill:#786058; stroke:none;" d="M95 50L95 53C95.6961 51.4463 95.6961 51.5537 95 50z"/>
<path style="fill:#735558; stroke:none;" d="M101.333 50.6667C101.278 50.7222 101.222 51.7778 101.667 51.3333C101.722 51.2778 101.778 50.2222 101.333 50.6667z"/>
<path style="fill:#ddc9c7; stroke:none;" d="M109.667 50.3333C109.222 50.7778 110.278 50.7222 110.333 50.6667C110.778 50.2222 109.722 50.2778 109.667 50.3333z"/>
<path style="fill:#9a787e; stroke:none;" d="M71 51L71 53L73 53L73 51L71 51z"/>
<path style="fill:#956b6c; stroke:none;" d="M80.3333 51.6667C80.2778 51.7222 80.2222 52.7778 80.6667 52.3333C80.7222 52.2778 80.7778 51.2222 80.3333 51.6667z"/>
<path style="fill:#dfc1bc; stroke:none;" d="M81.3333 51.6667C81.2778 51.7222 81.2222 52.7778 81.6667 52.3333C81.7222 52.2778 81.7778 51.2222 81.3333 51.6667z"/>
<path style="fill:#fce9e2; stroke:none;" d="M87 51L87 57C88.7448 54.6882 89.2827 53.0215 87 51z"/>
<path style="fill:#cec8c0; stroke:none;" d="M96.3333 51.6667C96.2778 51.7222 96.2222 52.7778 96.6667 52.3333C96.7222 52.2778 96.7778 51.2222 96.3333 51.6667z"/>
<path style="fill:#d6bbba; stroke:none;" d="M102 51L103 52L102 51z"/>
<path style="fill:#b29697; stroke:none;" d="M109.667 51.3333C109.222 51.7778 110.278 51.7222 110.333 51.6667C110.778 51.2222 109.722 51.2778 109.667 51.3333z"/>
<path style="fill:#fdfcfa; stroke:none;" d="M9 52L8 71L168 71C167.802 68.512 167.646 66.2639 164.852 65.4483C161.761 64.5461 158.141 65.8231 155 65.9606C147.36 66.2952 139.647 66 132 66L16 66L16 64L36 64L36 58L44 58L44 64L51 64C50.5358 60.8777 50.4966 58.1154 51 55C40.2652 55 28.6819 56.2494 18.0394 54.8673C14.8633 54.4548 12.1435 52.6239 9 52z"/>
<path style="fill:#784d4b; stroke:none;" d="M78.3333 52.6667C78.2778 52.7222 78.2222 53.7778 78.6667 53.3333C78.7222 53.2778 78.7778 52.2222 78.3333 52.6667z"/>
<path style="fill:#f8e3e2; stroke:none;" d="M100 52L100 58C102.646 55.9796 102.067 54.3619 100 52z"/>
<path style="fill:#9f8c8b; stroke:none;" d="M101 52L103 57C103.71 54.4693 103.131 53.4845 101 52z"/>
<path style="fill:#977176; stroke:none;" d="M109 52C109.545 53.6352 109.365 53.455 111 54L111 52L109 52z"/>
<path style="fill:#f1ebeb; stroke:none;" d="M15 53C17.2757 55.6042 20.6832 54.9985 24 55L44 55C47.3168 54.9985 50.7243 55.6042 53 53C42.1364 55.5864 25.8636 55.5864 15 53z"/>
<path style="fill:#d6d1ce; stroke:none;" d="M16 53C19.9586 54.6611 24.7397 54 29 54L52 54C48.0414 52.3389 43.2603 53 39 53L16 53z"/>
<path style="fill:#dabdbc; stroke:none;" d="M71 53L70 58C71.3182 56.0739 71.6514 55.2341 71 53z"/>
<path style="fill:#704d4e; stroke:none;" d="M72 53L72 56C72.6961 54.4463 72.6961 54.5537 72 53z"/>
<path style="fill:#ad8685; stroke:none;" d="M79 53L80 58C80.9157 55.6996 80.8793 54.6232 79 53z"/>
<path style="fill:#ddbec1; stroke:none;" d="M87.3333 53.6667C87.2778 53.7222 87.2222 54.7778 87.6667 54.3333C87.7222 54.2778 87.7778 53.2222 87.3333 53.6667z"/>
<path style="fill:#e6b9af; stroke:none;" d="M94.3333 53.6667C94.2778 53.7222 94.2222 54.7778 94.6667 54.3333C94.7222 54.2778 94.7778 53.2222 94.3333 53.6667z"/>
<path style="fill:#a37c73; stroke:none;" d="M95.3333 53.6667C95.2778 53.7222 95.2222 54.7778 95.6667 54.3333C95.7222 54.2778 95.7778 53.2222 95.3333 53.6667z"/>
<path style="fill:#e0caca; stroke:none;" d="M109 53L107 58C109.131 56.5155 109.71 55.5307 109 53z"/>
<path style="fill:#ede8e5; stroke:none;" d="M122 53C124.582 55.9548 129.293 55 133 55L160 55C156.301 53.448 151.983 54 148 54C139.482 54 130.324 54.9819 122 53z"/>
<path style="fill:#d8d3d0; stroke:none;" d="M123 53C126.959 54.6611 131.74 54 136 54L160 54C156.041 52.3389 151.26 53 147 53L123 53z"/>
<path style="fill:#916667; stroke:none;" d="M78 54L78 58C78.7102 56.2405 78.7102 55.7595 78 54z"/>
<path style="fill:#f7c9cb; stroke:none;" d="M79 54L79 58C79.7102 56.2405 79.7102 55.7595 79 54z"/>
<path style="fill:#c2a4a0; stroke:none;" d="M81 54L81 58C81.7102 56.2405 81.7102 55.7595 81 54z"/>
<path style="fill:#785455; stroke:none;" d="M110.333 54.6667C110.278 54.7222 110.222 55.7778 110.667 55.3333C110.722 55.2778 110.778 54.2222 110.333 54.6667z"/>
<path style="fill:#5d3d38; stroke:none;" d="M93.3333 55.6667C93.2778 55.7222 93.2222 56.7778 93.6667 56.3333C93.7222 56.2778 93.7778 55.2222 93.3333 55.6667z"/>
<path style="fill:#75554f; stroke:none;" d="M95.3333 55.6667C95.2778 55.7222 95.2222 56.7778 95.6667 56.3333C95.7222 56.2778 95.7778 55.2222 95.3333 55.6667z"/>
<path style="fill:#b7a2a1; stroke:none;" d="M96 55L95 58C96.7663 57.0214 96.9555 56.7782 96 55z"/>
<path style="fill:#d1b1b3; stroke:none;" d="M111 55L112 56L111 55z"/>
<path style="fill:#a69391; stroke:none;" d="M72 56L72 58L74 58L74 56L72 56z"/>
<path style="fill:#b4a9aa; stroke:none;" d="M88 56L87 58L89 58C89 56.1468 89.2997 56.6498 88 56z"/>
<path style="fill:#a69794; stroke:none;" d="M110 56L110 58L112 58L112 56L110 56z"/>
<path style="fill:#8c7372; stroke:none;" d="M93 57L94 58L93 57z"/>
<path style="fill:#b7b4af; stroke:none;" d="M103 57L104 58L103 57z"/>
</svg>
