<?xml version="1.0" standalone="no"?>
<!DOCTYPE svg PUBLIC "-//W3C//DTD SVG 20010904//EN"
 "http://www.w3.org/TR/2001/REC-SVG-20010904/DTD/svg10.dtd">
<svg version="1.0" xmlns="http://www.w3.org/2000/svg"
 width="175.000000pt" height="71.000000pt" viewBox="0 0 175.000000 71.000000"
 preserveAspectRatio="xMidYMid meet">
<metadata>
Created by potrace 1.15, written by Peter Selinger 2001-2017
</metadata>
<g transform="translate(0.000000,71.000000) scale(0.100000,-0.100000)"
fill="#000000" stroke="none">
<path d="M170 395 c0 -122 2 -145 15 -145 13 0 15 23 15 145 0 122 -2 145 -15
145 -13 0 -15 -23 -15 -145z"/>
<path d="M345 507 c-5 -25 -2 -67 10 -124 21 -110 31 -134 48 -127 15 5 12 21
-36 229 l-14 60 -8 -38z"/>
<path d="M520 395 c0 -122 2 -145 15 -145 12 0 15 14 16 63 0 34 1 99 2 144 2
73 0 83 -15 83 -16 0 -18 -14 -18 -145z"/>
<path d="M589 527 c9 -12 12 -36 9 -81 -4 -67 8 -79 31 -30 22 48 9 94 -32
115 -20 11 -21 11 -8 -4z"/>
<path d="M687 522 c-14 -15 -17 -40 -17 -119 0 -113 4 -129 32 -144 18 -10 19
-9 8 11 -8 15 -11 64 -8 146 1 68 3 124 2 124 0 0 -8 -8 -17 -18z"/>
<path d="M755 394 l0 -145 23 26 c20 23 22 37 22 123 0 98 -3 107 -30 129 -13
10 -15 -6 -15 -133z"/>
<path d="M850 395 c0 -122 2 -145 15 -145 13 0 15 23 15 145 0 122 -2 145 -15
145 -13 0 -15 -23 -15 -145z"/>
<path d="M920 520 c13 -24 13 -96 0 -121 -13 -24 2 -25 23 -1 30 33 18 122
-18 136 -13 4 -14 2 -5 -14z"/>
<path d="M1000 421 c0 -131 3 -147 32 -162 18 -10 18 -9 8 11 -7 13 -10 66 -8
145 3 114 1 125 -14 125 -16 0 -18 -12 -18 -119z"/>
<path d="M1162 398 c3 -119 5 -143 18 -143 13 0 15 24 18 143 2 138 2 142 -18
142 -20 0 -20 -4 -18 -142z"/>
<path d="M1460 395 c0 -120 2 -145 15 -145 11 0 15 17 17 73 5 129 -2 217 -18
217 -11 0 -14 -26 -14 -145z"/>
<path d="M1528 527 c10 -11 12 -33 8 -69 -7 -66 -7 -60 2 -138 5 -50 11 -66
25 -68 14 -3 17 4 17 48 0 41 -5 55 -24 73 -23 22 -24 24 -7 34 40 25 33 100
-11 124 -21 11 -22 11 -10 -4z"/>
<path d="M1337 495 c-7 -43 29 -213 49 -234 24 -26 26 -4 9 76 -10 43 -22 101
-27 128 -14 65 -24 75 -31 30z"/>
<path d="M257 273 c-4 -3 -7 -11 -7 -17 0 -6 5 -5 12 2 6 6 9 14 7 17 -3 3 -9
2 -12 -2z"/>
<path d="M1246 265 c-3 -8 -1 -15 4 -15 6 0 10 7 10 15 0 8 -2 15 -4 15 -2 0
-6 -7 -10 -15z"/>
<path d="M933 175 c0 -22 2 -30 4 -17 2 12 2 30 0 40 -3 9 -5 -1 -4 -23z"/>
<path d="M861 164 c0 -11 3 -14 6 -6 3 7 2 16 -1 19 -3 4 -6 -2 -5 -13z"/>
</g>
</svg>
